<svg xmlns="http://www.w3.org/2000/svg" width="24" height="24" viewBox="0 0 24 24" fill="none"><g transform="scale(0.972834) translate(-99.9719 -1898.7949)"><path d="M111.083 1907.06H113.532C113.699 1907.06 113.848 1907.06 113.968 1907.07C114.09 1907.08 114.241 1907.1 114.373 1907.2C114.548 1907.33 114.661 1907.52 114.685 1907.73C114.703 1907.89 114.652 1908.04 114.602 1908.15C114.553 1908.26 114.479 1908.39 114.398 1908.54L114.072 1909.11V1910.3L114.773 1911.17C114.898 1911.33 115.007 1911.47 115.083 1911.58C115.157 1911.69 115.243 1911.85 115.243 1912.03C115.243 1912.26 115.138 1912.48 114.956 1912.62C114.814 1912.74 114.642 1912.77 114.507 1912.78C114.37 1912.79 114.196 1912.79 113.997 1912.79L112.668 1912.79V1914.84C112.668 1915.04 112.506 1915.2 112.307 1915.2C112.108 1915.2 111.946 1915.04 111.946 1914.84V1912.79L110.618 1912.79C110.418 1912.79 110.244 1912.79 110.107 1912.78C109.973 1912.77 109.8 1912.74 109.658 1912.62C109.477 1912.48 109.371 1912.26 109.371 1912.03C109.372 1911.85 109.457 1911.69 109.531 1911.58C109.607 1911.47 109.716 1911.33 109.841 1911.17L110.542 1910.3V1909.11L110.217 1908.54C110.135 1908.39 110.062 1908.26 110.012 1908.15C109.962 1908.04 109.911 1907.89 109.929 1907.73C109.954 1907.52 110.067 1907.33 110.241 1907.2C110.373 1907.1 110.524 1907.08 110.646 1907.07C110.766 1907.06 110.916 1907.06 111.083 1907.06Z" fill="currentColor"/></g></svg>