<svg xmlns="http://www.w3.org/2000/svg" width="24" height="24" viewBox="0 0 24 24" fill="none"><g transform="scale(0.972834) translate(-82.3239 -1744.4699)"><path d="M91.4502 1753.94C91.2508 1753.94 91.0892 1754.1 91.0892 1754.3C91.0892 1754.5 91.2508 1754.66 91.4502 1754.66H97.8677C98.0671 1754.66 98.2287 1754.5 98.2287 1754.3C98.2287 1754.1 98.0671 1753.94 97.8677 1753.94H91.4502Z" fill="currentColor"/><path d="M91.0892 1756.8C91.0892 1756.6 91.2508 1756.44 91.4502 1756.44H97.8677C98.0671 1756.44 98.2287 1756.6 98.2287 1756.8C98.2287 1757 98.0671 1757.16 97.8677 1757.16H91.4502C91.2508 1757.16 91.0892 1757 91.0892 1756.8Z" fill="currentColor"/><path d="M91.0892 1759.31C91.0892 1759.11 91.2508 1758.95 91.4502 1758.95H97.8677C98.0671 1758.95 98.2287 1759.11 98.2287 1759.31C98.2287 1759.51 98.0671 1759.67 97.8677 1759.67H91.4502C91.2508 1759.67 91.0892 1759.51 91.0892 1759.31Z" fill="currentColor"/></g></svg>