<svg xmlns="http://www.w3.org/2000/svg" width="24" height="24" viewBox="0 0 24 24" fill="none"><g transform="scale(0.972834) translate(-168.9604 -1693.2749)"><path d="M181.991 1709.2C182.282 1708.97 182.671 1708.63 183.062 1708.22C183.826 1707.42 184.665 1706.25 184.665 1704.96C184.665 1703.1 183.156 1701.59 181.296 1701.59C179.435 1701.59 177.926 1703.1 177.926 1704.96C177.926 1706.25 178.765 1707.42 179.53 1708.22C179.92 1708.63 180.309 1708.97 180.6 1709.2C180.76 1709.33 180.923 1709.46 181.093 1709.57C181.213 1709.65 181.377 1709.65 181.498 1709.57C181.668 1709.46 181.831 1709.33 181.991 1709.2ZM182.399 1704.96C182.399 1705.57 181.905 1706.06 181.296 1706.06C180.687 1706.06 180.193 1705.57 180.193 1704.96C180.193 1704.35 180.687 1703.86 181.296 1703.86C181.905 1703.86 182.399 1704.35 182.399 1704.96Z" fill="currentColor" fill-rule="evenodd" clip-rule="evenodd"/></g></svg>