<svg preserveAspectRatio="none" overflow="visible" style="display: block;" width="96.2529" height="119.478" viewBox="0 0 96.2529 119.478" fill="none" xmlns="http://www.w3.org/2000/svg">
<g id="Group 280" filter="url(#filter0_dd_3412_117289)">
<g id="Vector" filter="url(#filter1_dd_3412_117289)">
<path d="M57.8217 67.4744L42.7564 67.4777L35.253 54.0703C34.1198 52.0152 33.151 50.0691 32.3884 47.8738C32.2532 46.9232 32.1428 45.894 32.768 45.1241C33.9091 43.72 36.3119 43.7694 37.337 45.3295L40.3885 49.976L40.4133 33.739C40.4167 31.5785 41.3359 29.7087 43.261 29.6504C44.3323 29.6178 45.1715 30.1621 45.7922 31.1307C45.9848 31.7155 46.2822 32.5662 46.2844 33.1812L46.3194 41.7492C48.7458 40.2733 51.6892 40.9534 52.9069 43.4798C55.3682 42.4091 57.9152 43.2857 58.9684 45.7234C60.2965 45.5528 61.6787 45.7032 62.6294 46.6213C63.5554 47.5158 63.6759 48.8233 63.7367 50.1028L62.4875 55.5439L57.8205 67.4744H57.8217Z" fill="white"/>
</g>
<g id="Vector_2" filter="url(#filter2_dd_3412_117289)">
<path d="M28.9474 24.189C40.9782 20.6275 53.6316 20.4276 65.8644 23.8768L61.6864 26.2895C61.4404 26.4319 61.226 27.081 61.3978 27.2631C61.5696 27.4452 62.1565 27.4712 62.4286 27.3096L68.2529 23.8576L64.8817 18.0039C64.7567 17.7862 64.2798 17.5165 64.0764 17.5397C63.8221 17.5685 63.6393 18.275 63.8194 18.5941L66.098 22.6335C53.5546 19.239 40.7473 19.3609 28.4142 23.0813C28.2245 23.2661 27.9593 23.733 28.006 23.9316C28.0651 24.1808 28.5805 24.2972 28.9488 24.189H28.9474Z" fill="url(#paint0_linear_3412_117289)"/>
</g>
<g id="Vector_3" filter="url(#filter3_dd_3412_117289)">
<path d="M67.3055 10.6507C55.2747 7.08916 42.6214 6.88924 30.3886 10.3385L34.5665 12.7512C34.8125 12.8936 35.0269 13.5426 34.8551 13.7247C34.6833 13.9069 34.0965 13.9329 33.8244 13.7713L28 10.3193L31.3712 4.4656C31.4963 4.24788 31.9732 3.97813 32.1766 4.00141C32.4308 4.03016 32.6136 4.73672 32.4335 5.05576L30.1549 9.09517C42.6983 5.7007 55.5056 5.82257 67.8387 9.54293C68.0284 9.72778 68.2936 10.1947 68.2469 10.3933C68.1878 10.6425 67.6724 10.7589 67.3041 10.6507H67.3055Z" fill="url(#paint1_linear_3412_117289)"/>
</g>
</g>
<defs>
<filter id="filter0_dd_3412_117289" x="0" y="0" width="96.2529" height="119.478" filterUnits="userSpaceOnUse" color-interpolation-filters="sRGB">
<feFlood flood-opacity="0" result="BackgroundImageFix"/>
<feColorMatrix in="SourceAlpha" type="matrix" values="0 0 0 0 0 0 0 0 0 0 0 0 0 0 0 0 0 0 127 0" result="hardAlpha"/>
<feMorphology radius="10" operator="erode" in="SourceAlpha" result="effect1_dropShadow_3412_117289"/>
<feOffset dy="24"/>
<feGaussianBlur stdDeviation="19"/>
<feComposite in2="hardAlpha" operator="out"/>
<feColorMatrix type="matrix" values="0 0 0 0 0.0901961 0 0 0 0 0.0901961 0 0 0 0 0.0901961 0 0 0 0.12 0"/>
<feBlend mode="normal" in2="BackgroundImageFix" result="effect1_dropShadow_3412_117289"/>
<feColorMatrix in="SourceAlpha" type="matrix" values="0 0 0 0 0 0 0 0 0 0 0 0 0 0 0 0 0 0 127 0" result="hardAlpha"/>
<feMorphology radius="5" operator="erode" in="SourceAlpha" result="effect2_dropShadow_3412_117289"/>
<feOffset dy="10"/>
<feGaussianBlur stdDeviation="7.5"/>
<feComposite in2="hardAlpha" operator="out"/>
<feColorMatrix type="matrix" values="0 0 0 0 0.0901961 0 0 0 0 0.0901961 0 0 0 0 0.0901961 0 0 0 0.1 0"/>
<feBlend mode="normal" in2="effect1_dropShadow_3412_117289" result="effect2_dropShadow_3412_117289"/>
<feBlend mode="normal" in="SourceGraphic" in2="effect2_dropShadow_3412_117289" result="shape"/>
</filter>
<filter id="filter1_dd_3412_117289" x="4.28358" y="25.649" width="87.4531" height="93.8288" filterUnits="userSpaceOnUse" color-interpolation-filters="sRGB">
<feFlood flood-opacity="0" result="BackgroundImageFix"/>
<feColorMatrix in="SourceAlpha" type="matrix" values="0 0 0 0 0 0 0 0 0 0 0 0 0 0 0 0 0 0 127 0" result="hardAlpha"/>
<feMorphology radius="10" operator="erode" in="SourceAlpha" result="effect1_dropShadow_3412_117289"/>
<feOffset dy="24"/>
<feGaussianBlur stdDeviation="19"/>
<feComposite in2="hardAlpha" operator="out"/>
<feColorMatrix type="matrix" values="0 0 0 0 0.0901961 0 0 0 0 0.0901961 0 0 0 0 0.0901961 0 0 0 0.12 0"/>
<feBlend mode="normal" in2="BackgroundImageFix" result="effect1_dropShadow_3412_117289"/>
<feColorMatrix in="SourceAlpha" type="matrix" values="0 0 0 0 0 0 0 0 0 0 0 0 0 0 0 0 0 0 127 0" result="hardAlpha"/>
<feMorphology radius="5" operator="erode" in="SourceAlpha" result="effect2_dropShadow_3412_117289"/>
<feOffset dy="10"/>
<feGaussianBlur stdDeviation="7.5"/>
<feComposite in2="hardAlpha" operator="out"/>
<feColorMatrix type="matrix" values="0 0 0 0 0.0901961 0 0 0 0 0.0901961 0 0 0 0 0.0901961 0 0 0 0.1 0"/>
<feBlend mode="normal" in2="effect1_dropShadow_3412_117289" result="effect2_dropShadow_3412_117289"/>
<feBlend mode="normal" in="SourceGraphic" in2="effect2_dropShadow_3412_117289" result="shape"/>
</filter>
<filter id="filter2_dd_3412_117289" x="0.000606792" y="13.5383" width="96.2523" height="65.8783" filterUnits="userSpaceOnUse" color-interpolation-filters="sRGB">
<feFlood flood-opacity="0" result="BackgroundImageFix"/>
<feColorMatrix in="SourceAlpha" type="matrix" values="0 0 0 0 0 0 0 0 0 0 0 0 0 0 0 0 0 0 127 0" result="hardAlpha"/>
<feMorphology radius="10" operator="erode" in="SourceAlpha" result="effect1_dropShadow_3412_117289"/>
<feOffset dy="24"/>
<feGaussianBlur stdDeviation="19"/>
<feComposite in2="hardAlpha" operator="out"/>
<feColorMatrix type="matrix" values="0 0 0 0 0.0901961 0 0 0 0 0.0901961 0 0 0 0 0.0901961 0 0 0 0.12 0"/>
<feBlend mode="normal" in2="BackgroundImageFix" result="effect1_dropShadow_3412_117289"/>
<feColorMatrix in="SourceAlpha" type="matrix" values="0 0 0 0 0 0 0 0 0 0 0 0 0 0 0 0 0 0 127 0" result="hardAlpha"/>
<feMorphology radius="5" operator="erode" in="SourceAlpha" result="effect2_dropShadow_3412_117289"/>
<feOffset dy="10"/>
<feGaussianBlur stdDeviation="7.5"/>
<feComposite in2="hardAlpha" operator="out"/>
<feColorMatrix type="matrix" values="0 0 0 0 0.0901961 0 0 0 0 0.0901961 0 0 0 0 0.0901961 0 0 0 0.1 0"/>
<feBlend mode="normal" in2="effect1_dropShadow_3412_117289" result="effect2_dropShadow_3412_117289"/>
<feBlend mode="normal" in="SourceGraphic" in2="effect2_dropShadow_3412_117289" result="shape"/>
</filter>
<filter id="filter3_dd_3412_117289" x="0" y="0" width="96.2523" height="65.8783" filterUnits="userSpaceOnUse" color-interpolation-filters="sRGB">
<feFlood flood-opacity="0" result="BackgroundImageFix"/>
<feColorMatrix in="SourceAlpha" type="matrix" values="0 0 0 0 0 0 0 0 0 0 0 0 0 0 0 0 0 0 127 0" result="hardAlpha"/>
<feMorphology radius="10" operator="erode" in="SourceAlpha" result="effect1_dropShadow_3412_117289"/>
<feOffset dy="24"/>
<feGaussianBlur stdDeviation="19"/>
<feComposite in2="hardAlpha" operator="out"/>
<feColorMatrix type="matrix" values="0 0 0 0 0.0901961 0 0 0 0 0.0901961 0 0 0 0 0.0901961 0 0 0 0.12 0"/>
<feBlend mode="normal" in2="BackgroundImageFix" result="effect1_dropShadow_3412_117289"/>
<feColorMatrix in="SourceAlpha" type="matrix" values="0 0 0 0 0 0 0 0 0 0 0 0 0 0 0 0 0 0 127 0" result="hardAlpha"/>
<feMorphology radius="5" operator="erode" in="SourceAlpha" result="effect2_dropShadow_3412_117289"/>
<feOffset dy="10"/>
<feGaussianBlur stdDeviation="7.5"/>
<feComposite in2="hardAlpha" operator="out"/>
<feColorMatrix type="matrix" values="0 0 0 0 0.0901961 0 0 0 0 0.0901961 0 0 0 0 0.0901961 0 0 0 0.1 0"/>
<feBlend mode="normal" in2="effect1_dropShadow_3412_117289" result="effect2_dropShadow_3412_117289"/>
<feBlend mode="normal" in="SourceGraphic" in2="effect2_dropShadow_3412_117289" result="shape"/>
</filter>
<linearGradient id="paint0_linear_3412_117289" x1="68.2529" y1="22.4775" x2="28.0006" y2="22.4775" gradientUnits="userSpaceOnUse">
<stop stop-color="white"/>
<stop offset="1" stop-color="#787878"/>
</linearGradient>
<linearGradient id="paint1_linear_3412_117289" x1="28" y1="8.93917" x2="68.2523" y2="8.93917" gradientUnits="userSpaceOnUse">
<stop stop-color="white"/>
<stop offset="1" stop-color="#787878"/>
</linearGradient>
</defs>
</svg>
