<svg xmlns="http://www.w3.org/2000/svg" width="24" height="24" viewBox="0 0 24 24" fill="none"><g transform="scale(0.972834) translate(-151.3124 -614.9804)"><path d="M166.984 624.505C167.351 624.603 167.641 624.893 167.74 625.261C167.919 625.927 167.919 627.315 167.919 627.315C167.919 627.315 167.919 628.704 167.74 629.37C167.641 629.737 167.351 630.028 166.984 630.126C166.317 630.306 163.647 630.306 163.647 630.306C163.647 630.306 160.978 630.306 160.311 630.126C159.944 630.028 159.653 629.737 159.555 629.37C159.376 628.704 159.376 627.315 159.376 627.315C159.376 627.315 159.376 625.927 159.555 625.261C159.653 624.893 159.944 624.603 160.311 624.505C160.978 624.325 163.647 624.325 163.647 624.325C163.647 624.325 166.317 624.325 166.984 624.505ZM162.793 626.034V628.597L165.014 627.315L162.793 626.034Z" fill="currentColor" fill-rule="evenodd" clip-rule="evenodd"/></g></svg>