<svg xmlns="http://www.w3.org/2000/svg" width="24" height="24" viewBox="0 0 24 24" fill="none"><g transform="scale(0.972834) translate(-151.3124 -1333.7449)"><path d="M165.511 1345.23C165.65 1345.09 165.646 1344.86 165.503 1344.72C165.36 1344.58 165.131 1344.58 164.992 1344.73L163.117 1346.66L162.303 1345.82C162.164 1345.68 161.936 1345.67 161.792 1345.81C161.649 1345.95 161.645 1346.18 161.783 1346.32L162.857 1347.43C162.925 1347.5 163.018 1347.54 163.116 1347.54C163.214 1347.54 163.308 1347.51 163.376 1347.43L165.511 1345.23Z" fill="currentColor"/><path d="M163.647 1342.11C161.454 1342.11 159.677 1343.89 159.677 1346.08C159.677 1348.27 161.454 1350.05 163.647 1350.05C165.84 1350.05 167.618 1348.27 167.618 1346.08C167.618 1343.89 165.84 1342.11 163.647 1342.11ZM160.399 1346.08C160.399 1344.29 161.853 1342.83 163.647 1342.83C165.442 1342.83 166.896 1344.29 166.896 1346.08C166.896 1347.88 165.442 1349.33 163.647 1349.33C161.853 1349.33 160.399 1347.88 160.399 1346.08Z" fill="currentColor" fill-rule="evenodd" clip-rule="evenodd"/></g></svg>